<svg xmlns="http://www.w3.org/2000/svg" xmlns:svg="http://www.w3.org/2000/svg" id="svg2" width="423.783" height="413.863" version="1.0"><metadata id="metadata7"/><g id="layer1" transform="translate(-0.2146532,-9.5743398e-2)"><path style="fill:navy;fill-rule:evenodd;stroke:none;stroke-width:0;stroke-linecap:butt;stroke-linejoin:miter;stroke-miterlimit:4;stroke-dasharray:none;stroke-opacity:1" id="path2385" d="M 644.18996,652.36218 A 144.18996,140 0 1 1 355.81004,652.36218 A 144.18996,140 0 1 1 644.18996,652.36218 z" transform="matrix(1.1790003,0,0,1.1794219,-377.42543,-562.47689)"/><path style="fill:#fff;stroke:none" id="path2387" d="M 525.21739,612.36218 A 125.21739,220 0 1 1 274.78261,612.36218 A 125.21739,220 0 1 1 525.21739,612.36218 z" transform="matrix(0.9583334,0,0,0.5227273,-171.25861,-113.0197)"/><path style="fill:navy;fill-opacity:1;fill-rule:evenodd;stroke:none;stroke-width:0;stroke-linecap:butt;stroke-linejoin:miter;stroke-miterlimit:4;stroke-dasharray:none;stroke-opacity:1" id="path2411" d="M 340.2336,369.73198 L 222.07473,252.0787 L 192.07473,282.0787 L 152.07473,242.0787 L 252.07473,142.0787 L 292.07473,182.0787 L 262.07473,212.0787 L 379.76995,330.19563 C 359.76995,355.19563 367.08172,347.61404 340.2336,369.73198 z"/><path style="fill:none;fill-opacity:1;stroke:gray;stroke-width:7.16319609;stroke-miterlimit:4;stroke-dasharray:42.97917697,42.97917697;stroke-dashoffset:0;stroke-opacity:1" id="path3220" d="M 760,502.36218 A 370,410 0 1 1 20,502.36218 A 370,410 0 1 1 760,502.36218 z" transform="matrix(0.5675224,0,0,0.5000576,-9.2277948,-44.182668)"/><path style="fill:navy;fill-opacity:1;stroke:none;stroke-width:0;stroke-miterlimit:4;stroke-dasharray:none" id="path3183" d="M 860,222.36218 A 70,70 0 1 1 859.99993,222.26058" transform="matrix(0.5700888,-4.535406e-3,4.5353915e-3,0.5700906,-79.196622,-71.227108)"/></g></svg>